<?xml version="1.0" standalone="no"?>
<!DOCTYPE svg PUBLIC "-//W3C//DTD SVG 1.1//EN"
"http://www.w3.org/Graphics/SVG/1.1/DTD/svg11.dtd">

<svg width="462" height="431" view_box="0 0 462 431"
xmlns="http://www.w3.org/2000/svg"
xmlns:link="http://www.w3.org/1999/xlink">\n\n<desc>Généré par Mocodo 2.3.7 le Fri, 23 Aug 2019 02:53:37</desc>

<rect id="frame" x="0" y="0" width="462" height="431" fill="#ffffbf" stroke="none" stroke-width="0"/>

<!-- Association passer -->
<line x1="65" y1="346" x2="65" y2="211" stroke="#66c2a5" stroke-width="2"/>
<text x="70.0" y="296" fill="#d53e4f" font-family="Verdana" font-size="12">1,1</text>
<line x1="65" y1="85" x2="65" y2="211" stroke="#66c2a5" stroke-width="2"/>
<text x="70.0" y="178" fill="#d53e4f" font-family="Verdana" font-size="12">0,N</text>
<g id="association-passer">
	<path d="M 78 186 a 14 14 90 0 1 14 14 V 211 h -54 V 200 a 14 14 90 0 1 14 -14" fill="#abdda4" stroke="#abdda4" stroke-width="0"/>
	<path d="M 92 211.0 v 11 a 14 14 90 0 1 -14 14 H 52 a 14 14 90 0 1 -14 -14 V 211.0 H 54" fill="#e6f598" stroke="#e6f598" stroke-width="0"/>
	<rect x="38" y="186" width="54" height="50" fill="none" rx="14" stroke="#66c2a5" stroke-width="2"/>
	<line x1="38" y1="211" x2="92" y2="211" stroke="#66c2a5" stroke-width="1"/>
	<text x="45" y="203.7" fill="#000000" font-family="Verdana" font-size="12">passer</text>
</g>

<!-- Association comporter -->
<line x1="192" y1="211" x2="192" y2="346" stroke="#66c2a5" stroke-width="2"/>
<text x="197.0" y="270" fill="#d53e4f" font-family="Verdana" font-size="12">1,1</text>
<line x1="65" y1="346" x2="192" y2="346" stroke="#66c2a5" stroke-width="2"/>
<text x="126" y="363.0" fill="#d53e4f" font-family="Verdana" font-size="12">1,N</text>
<g id="association-comporter">
	<path d="M 217 321 a 14 14 90 0 1 14 14 V 346 h -78 V 335 a 14 14 90 0 1 14 -14" fill="#abdda4" stroke="#abdda4" stroke-width="0"/>
	<path d="M 231 346.0 v 11 a 14 14 90 0 1 -14 14 H 167 a 14 14 90 0 1 -14 -14 V 346.0 H 78" fill="#e6f598" stroke="#e6f598" stroke-width="0"/>
	<rect x="153" y="321" width="78" height="50" fill="none" rx="14" stroke="#66c2a5" stroke-width="2"/>
	<line x1="153" y1="346" x2="231" y2="346" stroke="#66c2a5" stroke-width="1"/>
	<text x="160" y="338.7" fill="#000000" font-family="Verdana" font-size="12">comporter</text>
</g>

<!-- Association appartenir -->
<line x1="300" y1="346" x2="410" y2="346" stroke="#66c2a5" stroke-width="2"/>
<text x="342" y="363.0" fill="#d53e4f" font-family="Verdana" font-size="12">1,1</text>
<line x1="410" y1="211" x2="410" y2="346" stroke="#66c2a5" stroke-width="2"/>
<text x="415.0" y="262" fill="#d53e4f" font-family="Verdana" font-size="12">0,N</text>
<g id="association-appartenir">
	<path d="M 435 321 a 14 14 90 0 1 14 14 V 346 h -78 V 335 a 14 14 90 0 1 14 -14" fill="#abdda4" stroke="#abdda4" stroke-width="0"/>
	<path d="M 449 346.0 v 11 a 14 14 90 0 1 -14 14 H 385 a 14 14 90 0 1 -14 -14 V 346.0 H 78" fill="#e6f598" stroke="#e6f598" stroke-width="0"/>
	<rect x="371" y="321" width="78" height="50" fill="none" rx="14" stroke="#66c2a5" stroke-width="2"/>
	<line x1="371" y1="346" x2="449" y2="346" stroke="#66c2a5" stroke-width="1"/>
	<text x="378" y="338.7" fill="#000000" font-family="Verdana" font-size="12">appartenir</text>
</g>

<!-- Association posseder -->
<line x1="300" y1="346" x2="300" y2="211" stroke="#66c2a5" stroke-width="2"/>
<text x="305.0" y="262" fill="#d53e4f" font-family="Verdana" font-size="12">0,N</text>
<line x1="192" y1="211" x2="300" y2="211" stroke="#66c2a5" stroke-width="2"/>
<text x="228" y="228.0" fill="#d53e4f" font-family="Verdana" font-size="12">1,1</text>
<g id="association-posseder">
	<path d="M 321 186 a 14 14 90 0 1 14 14 V 211 h -70 V 200 a 14 14 90 0 1 14 -14" fill="#abdda4" stroke="#abdda4" stroke-width="0"/>
	<path d="M 335 211.0 v 11 a 14 14 90 0 1 -14 14 H 279 a 14 14 90 0 1 -14 -14 V 211.0 H 70" fill="#e6f598" stroke="#e6f598" stroke-width="0"/>
	<rect x="265" y="186" width="70" height="50" fill="none" rx="14" stroke="#66c2a5" stroke-width="2"/>
	<line x1="265" y1="211" x2="335" y2="211" stroke="#66c2a5" stroke-width="1"/>
	<text x="272" y="203.7" fill="#000000" font-family="Verdana" font-size="12">posseder</text>
</g>

<!-- Entity produit -->
<g id="entity-produit">
	<g id="frame-produit">
		<rect x="263" y="270" width="74" height="25" fill="#fdae61" stroke="#fdae61" stroke-width="0"/>
		<rect x="263" y="295.0" width="74" height="127" fill="#fee08b" stroke="#fee08b" stroke-width="0"/>
		<rect x="263" y="270" width="74" height="152" fill="none" stroke="#f46d43" stroke-width="2"/>
		<line x1="263" y1="295" x2="337" y2="295" stroke="#f46d43" stroke-width="1"/>
	</g>
	<text x="278" y="287.7" fill="#000000" font-family="Verdana" font-size="12">produit</text>
	<text x="268" y="312.7" fill="#000000" font-family="Verdana" font-size="12">id_produit</text>
	<line x1="268" y1="315" x2="330" y2="315" stroke="#000000" stroke-width="1"/>
	<text x="268" y="329.7" fill="#000000" font-family="Verdana" font-size="12">nom</text>
	<text x="268" y="346.8" fill="#000000" font-family="Verdana" font-size="12">couleur</text>
	<text x="268" y="363.8" fill="#000000" font-family="Verdana" font-size="12">dimension</text>
	<text x="268" y="380.8" fill="#000000" font-family="Verdana" font-size="12">ref</text>
	<text x="268" y="397.8" fill="#000000" font-family="Verdana" font-size="12">prix</text>
	<text x="268" y="414.8" fill="#000000" font-family="Verdana" font-size="12">stock</text>
</g>

<!-- Entity categorie -->
<g id="entity-categorie">
	<g id="frame-categorie">
		<rect x="367" y="177" width="86" height="25" fill="#fdae61" stroke="#fdae61" stroke-width="0"/>
		<rect x="367" y="202.0" width="86" height="43" fill="#fee08b" stroke="#fee08b" stroke-width="0"/>
		<rect x="367" y="177" width="86" height="68" fill="none" stroke="#f46d43" stroke-width="2"/>
		<line x1="367" y1="202" x2="453" y2="202" stroke="#f46d43" stroke-width="1"/>
	</g>
	<text x="381" y="194.7" fill="#000000" font-family="Verdana" font-size="12">categorie</text>
	<text x="372" y="219.8" fill="#000000" font-family="Verdana" font-size="12">id_categorie</text>
	<line x1="372" y1="222" x2="447" y2="222" stroke="#000000" stroke-width="1"/>
	<text x="372" y="236.8" fill="#000000" font-family="Verdana" font-size="12">nom</text>
</g>

<!-- Entity ligne -->
<g id="entity-ligne">
	<g id="frame-ligne">
		<rect x="161" y="169" width="62" height="25" fill="#fdae61" stroke="#fdae61" stroke-width="0"/>
		<rect x="161" y="194.0" width="62" height="59" fill="#fee08b" stroke="#fee08b" stroke-width="0"/>
		<rect x="161" y="169" width="62" height="84" fill="none" stroke="#f46d43" stroke-width="2"/>
		<line x1="161" y1="194" x2="223" y2="194" stroke="#f46d43" stroke-width="1"/>
	</g>
	<text x="177" y="186.7" fill="#000000" font-family="Verdana" font-size="12">ligne</text>
	<text x="166" y="211.8" fill="#000000" font-family="Verdana" font-size="12">id_ligne</text>
	<line x1="166" y1="214" x2="214" y2="214" stroke="#000000" stroke-width="1"/>
	<text x="166" y="228.8" fill="#000000" font-family="Verdana" font-size="12">quantite</text>
	<text x="166" y="245.8" fill="#000000" font-family="Verdana" font-size="12">prix</text>
</g>

<!-- Entity session -->
<g id="entity-session">
	<g id="frame-session">
		<rect x="266" y="43" width="68" height="25" fill="#fdae61" stroke="#fdae61" stroke-width="0"/>
		<rect x="266" y="68.0" width="68" height="59" fill="#fee08b" stroke="#fee08b" stroke-width="0"/>
		<rect x="266" y="43" width="68" height="84" fill="none" stroke="#f46d43" stroke-width="2"/>
		<line x1="266" y1="68" x2="334" y2="68" stroke="#f46d43" stroke-width="1"/>
	</g>
	<text x="277" y="60.7" fill="#000000" font-family="Verdana" font-size="12">session</text>
	<text x="271" y="85.8" fill="#000000" font-family="Verdana" font-size="12">sid</text>
	<line x1="271" y1="88" x2="289" y2="88" stroke="#000000" stroke-width="1"/>
	<text x="271" y="102.8" fill="#000000" font-family="Verdana" font-size="12">data</text>
	<text x="271" y="119.8" fill="#000000" font-family="Verdana" font-size="12">date_maj</text>
</g>

<!-- Entity commande -->
<g id="entity-commande">
	<g id="frame-commande">
		<rect x="9" y="304" width="112" height="25" fill="#fdae61" stroke="#fdae61" stroke-width="0"/>
		<rect x="9" y="329.0" width="112" height="59" fill="#fee08b" stroke="#fee08b" stroke-width="0"/>
		<rect x="9" y="304" width="112" height="84" fill="none" stroke="#f46d43" stroke-width="2"/>
		<line x1="9" y1="329" x2="121" y2="329" stroke="#f46d43" stroke-width="1"/>
	</g>
	<text x="31" y="321.7" fill="#000000" font-family="Verdana" font-size="12">commande</text>
	<text x="14" y="346.8" fill="#000000" font-family="Verdana" font-size="12">id_commande</text>
	<line x1="14" y1="349" x2="100" y2="349" stroke="#000000" stroke-width="1"/>
	<text x="14" y="363.8" fill="#000000" font-family="Verdana" font-size="12">date_commande</text>
	<text x="14" y="380.8" fill="#000000" font-family="Verdana" font-size="12">total</text>
</g>

<!-- Entity user -->
<g id="entity-user">
	<g id="frame-user">
		<rect x="30" y="9" width="70" height="25" fill="#fdae61" stroke="#fdae61" stroke-width="0"/>
		<rect x="30" y="34.0" width="70" height="127" fill="#fee08b" stroke="#fee08b" stroke-width="0"/>
		<rect x="30" y="9" width="70" height="152" fill="none" stroke="#f46d43" stroke-width="2"/>
		<line x1="30" y1="34" x2="100" y2="34" stroke="#f46d43" stroke-width="1"/>
	</g>
	<text x="51" y="26.7" fill="#000000" font-family="Verdana" font-size="12">user</text>
	<text x="35" y="51.7" fill="#000000" font-family="Verdana" font-size="12">id_user</text>
	<line x1="35" y1="54" x2="81" y2="54" stroke="#000000" stroke-width="1"/>
	<text x="35" y="68.7" fill="#000000" font-family="Verdana" font-size="12">log</text>
	<text x="35" y="85.8" fill="#000000" font-family="Verdana" font-size="12">mdp</text>
	<text x="35" y="102.8" fill="#000000" font-family="Verdana" font-size="12">nom</text>
	<text x="35" y="119.8" fill="#000000" font-family="Verdana" font-size="12">prenom</text>
	<text x="35" y="136.8" fill="#000000" font-family="Verdana" font-size="12">telephone</text>
	<text x="35" y="153.8" fill="#000000" font-family="Verdana" font-size="12">admin</text>
</g>
</svg>