<svg id="Calque_1" data-name="Calque 1" xmlns="http://www.w3.org/2000/svg" viewBox="0 0 700 349.99994"><defs><style>.cls-1{fill:#231f20;}</style></defs><title>logotxt</title><polygon class="cls-1" points="22.705 126.925 21.534 126.925 18.389 134.711 36.777 180.225 44.239 180.225 22.705 126.925"/><polygon class="cls-1" points="19.475 155.87 17.302 155.87 13.043 155.87 9.84 155.87 0 180.225 7.462 180.225 14.503 162.799 22.275 162.799 19.475 155.87"/><polygon class="cls-1" points="87.997 126.926 73.073 126.926 73.073 126.925 65.611 126.925 65.611 126.926 50.687 126.926 50.687 134.388 65.611 134.388 65.611 180.225 73.073 180.225 73.073 134.388 87.997 134.388 87.997 126.926"/><polygon class="cls-1" points="136.681 134.388 136.681 126.926 112.163 126.926 112.163 126.925 104.701 126.925 104.701 126.926 104.701 134.388 104.701 155.87 104.701 162.799 104.701 172.764 104.701 180.225 104.701 180.226 136.681 180.226 136.681 172.764 112.163 172.764 112.163 162.799 131.351 162.799 131.351 155.87 112.163 155.87 112.163 134.388 136.681 134.388"/><polygon class="cls-1" points="165.463 172.764 165.463 126.925 158.001 126.925 158.001 172.764 158.001 180.225 158.001 180.226 189.981 180.226 189.981 172.764 165.463 172.764"/><rect class="cls-1" x="211.30039" y="126.92527" width="7.46195" height="53.29967"/><polygon class="cls-1" points="272.062 134.388 272.062 126.926 247.544 126.926 247.544 126.925 240.082 126.925 240.082 126.926 240.082 134.388 240.082 155.87 240.082 162.799 240.082 172.764 240.082 180.225 240.082 180.226 272.062 180.226 272.062 172.764 247.544 172.764 247.544 162.799 266.732 162.799 266.732 155.87 247.544 155.87 247.544 134.388 272.062 134.388"/><path class="cls-1" d="M325.91528,154.30434,315.00966,127.312a17.69614,17.69614,0,0,0-3.66586-.3868H292.95166v53.29967h7.50712V162.79861h10.079l9.43922,17.42632h8.25731l-10.50964-18.76759A19.509,19.509,0,0,0,325.91528,154.30434Zm-15.69746,1.56532h-9.75905V134.432h9.75905c5.89732,0,11.26035,4.87359,11.26035,10.88542C321.47818,151.32888,316.11515,155.86967,310.21783,155.86967Z"/><polygon class="cls-1" points="437.969 177.121 437.969 169.659 413.451 169.659 413.451 169.658 405.989 169.658 405.989 169.659 405.989 177.121 405.989 198.603 405.989 205.532 405.989 215.497 405.989 222.958 405.989 222.959 437.969 222.959 437.969 215.497 413.451 215.497 413.451 205.532 432.639 205.532 432.639 198.603 413.451 198.603 413.451 177.121 437.969 177.121"/><path class="cls-1" d="M493.822,187.29958a17.64128,17.64128,0,0,0-17.64159-17.6412H457.78823v53.29967h7.50711v-17.4263h10.07905l9.43922,17.4263h8.25728l-10.50964-18.76757C488.74393,201.44807,493.822,194.49907,493.822,187.29958Zm-28.52664-10.13442h9.75907c5.89732,0,11.26034,4.87361,11.26034,10.88544,0,6.01144-5.363,10.55219-11.26034,10.55219h-9.75907Z"/><polygon class="cls-1" points="557.857 169.659 553.264 174.252 551.941 175.575 536.484 191.032 519.704 174.252 519.704 174.252 515.11 169.659 513.565 169.659 513.565 222.958 521.027 222.958 521.027 186.128 536.484 201.585 536.621 201.448 536.621 201.448 540.763 197.306 541.76 196.309 541.76 196.309 551.941 186.128 551.941 222.958 559.403 222.958 559.403 169.659 557.857 169.659"/><polygon class="cls-1" points="596.522 169.658 595.351 169.658 592.206 177.445 610.594 222.958 618.056 222.958 596.522 169.658"/><polygon class="cls-1" points="593.292 198.603 591.119 198.603 586.86 198.603 583.657 198.603 573.817 222.958 581.279 222.958 588.32 205.532 596.092 205.532 593.292 198.603"/><rect class="cls-1" x="634.09566" y="169.65838" width="7.46195" height="53.29967"/><polygon class="cls-1" points="692.538 169.658 692.538 204.478 667.909 175.126 667.909 175.126 663.321 169.658 661.624 169.658 661.624 222.958 669.086 222.958 669.086 188.138 692.538 216.087 692.538 216.087 698.304 222.958 700 222.958 700 169.658 692.538 169.658"/><path class="cls-1" d="M389.30764,198.60289v-.00013H365.70754l2.79954,6.929h14.11309a19.2047,19.2047,0,1,1-3.64095-22.96677l5.18958-5.374a26.6187,26.6187,0,0,0-43.13934,9.29323L354.874,220.75067a26.6412,26.6412,0,0,0,37.43529-22.14778Z"/><polygon class="cls-1" points="263.572 0 404.981 350 407.118 350 265.709 0 263.572 0"/></svg>